# xmcd CD database file
#
# Track frame offsets:
#	150
#	43955
#	89769
#	135202
#	204008
#	281550
#
# Disc length: 4174 seconds
#
# Revision: 0
# Processed by: cddbd v1.5.2PL0 Copyright (c) Steve Scherf et al.
# Submitted via: CDex 1.51
#
DISCID=4f104c06
DTITLE=Osho meditaties - Dynamic-meditation
DYEAR=1980
DGENRE=New Age
TTITLE0=Chaotic breathing
TTITLE1=Katharsis
TTITLE2=Hoo-jumping
TTITLE3=Freeze
TTITLE4=Celebrate-dance
TTITLE5=instructions
EXTD=YEAR: 1980
EXTT0=
EXTT1=
EXTT2=
EXTT3=
EXTT4=
EXTT5=
PLAYORDER=
